<svg xmlns="http://www.w3.org/2000/svg" xmlns:xlink="http://www.w3.org/1999/xlink" width="1280" height="800" viewBox="0 0 1280 800">
  <defs>
    <linearGradient id="linear-gradient" x1="0.5" x2="0.5" y2="1" gradientUnits="objectBoundingBox">
      <stop offset="0" stop-color="#ffe081"/>
      <stop offset="1" stop-color="#807041"/>
    </linearGradient>
    <filter id="Rectangle_6" x="257" y="538" width="257" height="97" filterUnits="userSpaceOnUse">
      <feOffset dy="3" input="SourceAlpha"/>
      <feGaussianBlur stdDeviation="3" result="blur"/>
      <feFlood flood-opacity="0.588"/>
      <feComposite operator="in" in2="blur"/>
      <feComposite in="SourceGraphic"/>
    </filter>
    <filter id="Rectangle_7" x="767" y="539" width="257" height="97" filterUnits="userSpaceOnUse">
      <feOffset dy="3" input="SourceAlpha"/>
      <feGaussianBlur stdDeviation="3" result="blur-2"/>
      <feFlood flood-opacity="0.58"/>
      <feComposite operator="in" in2="blur-2"/>
      <feComposite in="SourceGraphic"/>
    </filter>
    <clipPath id="clip-web-home">
      <rect width="1280" height="800"/>
    </clipPath>
  </defs>
  <g id="web-home" clip-path="url(#clip-web-home)">
    <rect width="1280" height="800" fill="#fff"/>
    <g id="Rectangle_8" data-name="Rectangle 8" fill="#ebf8fe" stroke="#707070" stroke-width="1">
      <rect width="1280" height="800" stroke="none"/>
      <rect x="0.5" y="0.5" width="1279" height="799" fill="none"/>
    </g>
    <path id="Path_5" data-name="Path 5" d="M491.248,0S616.859,223.86,746.2,245s190.281,0,196.5,108.2,162.92,126.854,162.92,126.854,124.366,18.655,111.93,120.636,60.94,106.955,60.94,106.955V0Z" transform="translate(1280 -491.248) rotate(90)" fill="url(#linear-gradient)"/>
    <g id="NavBar">
      <path id="Path_1" data-name="Path 1" d="M0,0H1280V59.437H0Z" fill="#424651"/>
      <rect id="Rectangle_5" data-name="Rectangle 5" width="239" height="59" transform="translate(308)" fill="#04c869"/>
      <text id="About" transform="translate(648 18)" fill="#ebf8fe" font-size="20" font-family="Raleway-Regular, Raleway"><tspan x="0" y="19">About</tspan></text>
      <text id="Contact" transform="translate(903 18)" fill="#ebf8fe" font-size="20" font-family="Raleway-Regular, Raleway"><tspan x="0" y="19">Contact</tspan></text>
      <text id="Home" transform="translate(393 18)" fill="#424651" font-size="20" font-family="Raleway-Regular, Raleway"><tspan x="0" y="19">Home</tspan></text>
    </g>
    <g transform="matrix(1, 0, 0, 1, 0, 0)" filter="url(#Rectangle_6)">
      <rect id="Rectangle_6-2" data-name="Rectangle 6" width="239" height="79" rx="39.5" transform="translate(266 544)" fill="#04c869"/>
    </g>
    <g transform="matrix(1, 0, 0, 1, 0, 0)" filter="url(#Rectangle_7)">
      <rect id="Rectangle_7-2" data-name="Rectangle 7" width="239" height="79" rx="39.5" transform="translate(776 545)" fill="#04c869"/>
    </g>
    <text id="Learn_more" data-name="Learn more" transform="translate(316 569)" fill="#ebf8fe" font-size="25" font-family="Raleway" font-weight="700"><tspan x="0" y="24">Learn more</tspan></text>
    <text id="Lets_Talk" data-name="Lets Talk" transform="translate(842 570)" fill="#ebf8fe" font-size="25" font-family="Raleway" font-weight="700"><tspan x="0" y="24">Lets Talk</tspan></text>
    <text id="_Every_great_design_begins_with_an_even_better_story." data-name="&quot; Every great design begins with an even better story." transform="translate(308 231)" fill="#424651" font-size="40" font-family="Raleway" font-weight="700"><tspan x="0" y="38">&quot; Every great design begins with an </tspan><tspan x="0" y="85">even better story.</tspan></text>
    <text id="_-_Lorinda_Mamo" data-name="- Lorinda Mamo" transform="translate(744 318)" fill="#424651" font-size="30" font-family="Raleway" font-weight="700"><tspan x="0" y="28">- Lorinda Mamo</tspan></text>
    <path id="Path_3" data-name="Path 3" d="M0,0H1280V59.437H0Z" transform="translate(0 740.563)" fill="#424651"/>
    <text id="Mo" transform="translate(138 2)" fill="#ebf8fe" font-size="45" font-family="Broadway"><tspan x="0" y="41">Mo</tspan></text>
    <text id="_1_252_252-25252" data-name="+1(252)252-25252" transform="translate(988 763)" fill="#ebf8fe" font-size="20" font-family="Raleway-Regular, Raleway"><tspan x="0" y="19">+1(252)252-25252</tspan></text>
    <text id="ON_Ottawa_K2C1Y5" data-name="ON Ottawa, K2C1Y5" transform="translate(705 763)" fill="#ebf8fe" font-size="20" font-family="Raleway-Regular, Raleway"><tspan x="0" y="19">ON Ottawa, K2C1Y5</tspan></text>
    <text id="About_Us" data-name="About Us" transform="translate(138 763)" fill="#ebf8fe" font-size="20" font-family="Raleway-Regular, Raleway"><tspan x="0" y="19">About Us</tspan></text>
    <text id="Contact_Us" data-name="Contact Us" transform="translate(308 763)" fill="#ebf8fe" font-size="20" font-family="Raleway-Regular, Raleway"><tspan x="0" y="19">Contact Us</tspan></text>
  </g>
</svg>
